# xmcd
#
# Track frame offsets: 
#        182
#        5550
#        36972
#        65130
#        91767
#        117097
#        161380
#        188010
#        209975
#        245275
#        276592
#        280862
#
# Disc length: 3971 seconds
#
# Revision: 5
# Processed by: cddbd v1.5.2PL0 Copyright (c) Steve Scherf et al.
# Submitted via: ExactAudioCopy v0.90b4
#
DISCID=ae0f810c
DTITLE=Courtney Pine - Underground
DYEAR=1997
DGENRE=Jazz
TTITLE0=Intro - Inhale
TTITLE1=Modern Day Jazz
TTITLE2=Tryin' Times
TTITLE3=Oneness Of Mind
TTITLE4=Invisible (Higher Vibe)
TTITLE5=The Book Of ... (The Dead)
TTITLE6=Children Of The Sun
TTITLE7=The In-Sense Song
TTITLE8=Silver Surfer
TTITLE9=Underground
TTITLE10=Outro - Xhale
TTITLE11=Save The Children
EXTD=YEAR: 1997
EXTT0=
EXTT1=
EXTT2=
EXTT3=
EXTT4=
EXTT5=
EXTT6=
EXTT7=
EXTT8=
EXTT9=
EXTT10=
EXTT11=
PLAYORDER=
